<?xml version="1.0" encoding="UTF-8" standalone="no"?>
<!-- Created with Inkscape (http://www.inkscape.org/) -->

<svg
   xmlns:dc="http://purl.org/dc/elements/1.1/"
   xmlns:cc="http://creativecommons.org/ns#"
   xmlns:rdf="http://www.w3.org/1999/02/22-rdf-syntax-ns#"
   xmlns:svg="http://www.w3.org/2000/svg"
   xmlns="http://www.w3.org/2000/svg"
   xmlns:sodipodi="http://sodipodi.sourceforge.net/DTD/sodipodi-0.dtd"
   xmlns:inkscape="http://www.inkscape.org/namespaces/inkscape"
   width="210mm"
   height="297mm"
   id="svg2"
   version="1.1"
   inkscape:version="0.48.4 r9939"
   sodipodi:docname="Tekening luchtweerstand.svg">
  <defs
     id="defs4" />
  <sodipodi:namedview
     id="base"
     pagecolor="#ffffff"
     bordercolor="#666666"
     borderopacity="1.0"
     inkscape:pageopacity="0.0"
     inkscape:pageshadow="2"
     inkscape:zoom="1.76"
     inkscape:cx="300.07309"
     inkscape:cy="685.81869"
     inkscape:document-units="px"
     inkscape:current-layer="layer1"
     showgrid="false"
     inkscape:window-width="1600"
     inkscape:window-height="838"
     inkscape:window-x="-8"
     inkscape:window-y="-8"
     inkscape:window-maximized="1">
    <inkscape:grid
       type="xygrid"
       id="grid2985"
       empspacing="5"
       visible="true"
       enabled="true"
       snapvisiblegridlinesonly="true" />
  </sodipodi:namedview>
  <metadata
     id="metadata7">
    <rdf:RDF>
      <cc:Work
         rdf:about="">
        <dc:format>image/svg+xml</dc:format>
        <dc:type
           rdf:resource="http://purl.org/dc/dcmitype/StillImage" />
        <dc:title />
      </cc:Work>
    </rdf:RDF>
  </metadata>
  <g
     inkscape:label="Laag 1"
     inkscape:groupmode="layer"
     id="layer1">
    <path
       style="fill:none;stroke:#000000;stroke-width:1px;stroke-linecap:butt;stroke-linejoin:miter;stroke-opacity:1"
       d="m 600,412.36218 -440,0 440,-160 z"
       id="path2987"
       inkscape:connector-curvature="0" />
    <path
       sodipodi:type="arc"
       style="fill:none;stroke:#ff0000;stroke-opacity:1"
       id="path2995"
       sodipodi:cx="142.5"
       sodipodi:cy="279.86218"
       sodipodi:rx="17.5"
       sodipodi:ry="17.5"
       d="m 160,279.86218 a 17.5,17.5 0 1 1 -35,0 17.5,17.5 0 1 1 35,0 z"
       transform="translate(333.57454,-1.8294765)" />
    <path
       sodipodi:type="arc"
       style="fill:none;stroke:#ff0000;stroke-opacity:1"
       id="path2997"
       sodipodi:cx="217.5"
       sodipodi:cy="284.86218"
       sodipodi:rx="17.5"
       sodipodi:ry="17.5"
       d="m 235,284.86218 a 17.5,17.5 0 1 1 -35,0 17.5,17.5 0 1 1 35,0 z"
       transform="translate(351.8693,-40.248482)" />
    <path
       style="fill:none;stroke:#ff0000;stroke-width:1px;stroke-linecap:butt;stroke-linejoin:miter;stroke-opacity:1"
       d="m 475,277.36218 c 95,-35 95,-35 95,-35"
       id="path2999"
       inkscape:connector-curvature="0" />
    <path
       style="fill:none;stroke:#000000;stroke-width:1px;stroke-linecap:butt;stroke-linejoin:miter;stroke-opacity:1"
       d="m 525,317.36218 0,0 5,-10 -10,0 5,10 c 0,0 0,0 0,-60 100,-35 100,-35 100,-35 l -5,10 -5,-15 10,5"
       id="path3771"
       inkscape:connector-curvature="0" />
    <flowRoot
       xml:space="preserve"
       id="flowRoot3773"
       style="font-size:12px;font-style:normal;font-weight:normal;line-height:125%;letter-spacing:0px;word-spacing:0px;fill:#000000;fill-opacity:1;stroke:none;font-family:Sans"
       transform="translate(-4.8125,-8.1021991)"><flowRegion
         id="flowRegion3775"><rect
           id="rect3777"
           width="31.101099"
           height="15.855463"
           x="534.81696"
           y="300.44736" /></flowRegion><flowPara
         id="flowPara3779">G</flowPara></flowRoot>    <flowRoot
       xml:space="preserve"
       id="flowRoot3781"
       style="font-size:12px;font-style:normal;font-weight:normal;line-height:125%;letter-spacing:0px;word-spacing:0px;fill:#000000;fill-opacity:1;stroke:none;font-family:Sans"
       transform="translate(-8.5,17.741551)"><flowRegion
         id="flowRegion3783"><rect
           id="rect3785"
           width="32.930576"
           height="22.563543"
           x="638.4873"
           y="209.58336" /></flowRegion><flowPara
         id="flowPara3787">F_roRl</flowPara></flowRoot>    <flowRoot
       xml:space="preserve"
       id="flowRoot3789"
       style="font-size:12px;font-style:normal;font-weight:normal;line-height:125%;letter-spacing:0px;word-spacing:0px;fill:#000000;fill-opacity:1;stroke:none;font-family:Sans"><flowRegion
         id="flowRegion3791"><rect
           id="rect3793"
           width="52.444992"
           height="17.075113"
           x="609.8255"
           y="332.7681" /></flowRegion><flowPara
         id="flowPara3797">h</flowPara></flowRoot>    <path
       style="fill:none;stroke:#000000;stroke-width:1px;stroke-linecap:butt;stroke-linejoin:miter;stroke-opacity:1"
       d="m 525,257.36218 c -15,-40 -15,-40 -15,-40 l 0,0"
       id="path3035"
       inkscape:connector-curvature="0" />
    <path
       style="fill:none;stroke:#000000;stroke-width:1px;stroke-linecap:butt;stroke-linejoin:miter;stroke-opacity:1"
       d="m 510,217.36218 -1,5 5,-2 z"
       id="path3039"
       inkscape:connector-curvature="0" />
    <path
       style="fill:none;stroke:#000000;stroke-width:1px;stroke-linecap:butt;stroke-linejoin:miter;stroke-opacity:1"
       d="m 525,257.36218 130,-45 0,0"
       id="path3043"
       inkscape:connector-curvature="0" />
    <path
       style="fill:none;stroke:#000000;stroke-width:1px;stroke-linecap:butt;stroke-linejoin:miter;stroke-opacity:1"
       d="m 653,216.36218 2,-4 -5,-2 z"
       id="path3045"
       inkscape:connector-curvature="0" />
    <text
       xml:space="preserve"
       style="font-size:12px;font-style:normal;font-weight:normal;line-height:125%;letter-spacing:0px;word-spacing:0px;fill:#000000;fill-opacity:1;stroke:none;font-family:Sans"
       x="519.72345"
       y="219.3904"
       id="text3047"
       sodipodi:linespacing="125%"><tspan
         sodipodi:role="line"
         id="tspan3049"
         x="519.72345"
         y="219.3904">F_norm</tspan></text>
    <flowRoot
       xml:space="preserve"
       id="flowRoot3051"
       style="font-size:12px;font-style:normal;font-weight:normal;line-height:125%;letter-spacing:0px;word-spacing:0px;fill:#000000;fill-opacity:1;stroke:none;font-family:Sans"><flowRegion
         id="flowRegion3053"><rect
           id="rect3055"
           width="66.430542"
           height="18.578384"
           x="668.56946"
           y="208.7838" /></flowRegion><flowPara
         id="flowPara3057">F_lucht</flowPara></flowRoot>    <text
       xml:space="preserve"
       style="font-size:12px;font-style:normal;font-weight:normal;line-height:125%;letter-spacing:0px;word-spacing:0px;fill:#000000;fill-opacity:1;stroke:none;font-family:Sans"
       x="631.44635"
       y="237.42162"
       id="text3059"
       sodipodi:linespacing="125%"><tspan
         sodipodi:role="line"
         id="tspan3061"
         x="631.44635"
         y="237.42162">F_rol</tspan></text>
    <flowRoot
       xml:space="preserve"
       id="flowRoot3063"
       style="fill:black;stroke:none;stroke-opacity:1;stroke-width:1px;stroke-linejoin:miter;stroke-linecap:butt;fill-opacity:1;font-family:Sans;font-style:normal;font-weight:normal;font-size:12px;line-height:125%;letter-spacing:0px;word-spacing:0px"><flowRegion
         id="flowRegion3065"><rect
           id="rect3067"
           width="51.26524"
           height="32.880466"
           x="519.72351"
           y="186.86348" /></flowRegion><flowPara
         id="flowPara3069" /></flowRoot>    <path
       style="fill:none;stroke:#000000;stroke-width:1px;stroke-linecap:butt;stroke-linejoin:miter;stroke-opacity:1"
       d="m 190,402.36218 c -0.16513,0.40984 -0.0855,1.39465 -0.49538,1.22953 -0.40984,-0.16513 0.0535,-1.22953 0.49538,-1.22953 0.67949,0 1.09528,0.80513 1.62594,1.22953 0.13016,0.10409 0.27902,0.20448 0.35355,0.35355 0.0527,0.10541 -0.0833,0.27022 0,0.35355 0.0833,0.0833 0.27022,-0.0833 0.35356,0 0.0833,0.0833 -0.0527,0.24815 0,0.35356 0.14907,0.29814 0.55803,0.40896 0.7071,0.7071 0.10541,0.21082 -0.0745,0.4835 0,0.70711 0.0833,0.25 0.27022,0.45711 0.35356,0.70711 0.0459,0.13757 -0.0549,1.00579 0,1.06066 0.0833,0.0833 0.2357,0 0.35355,0 0.11785,0.2357 0.27022,0.4571 0.35355,0.7071 0.0686,0.20587 0,1.87805 0,2.12132 0,0.11785 -0.0527,0.24815 0,0.35356 0.0745,0.14907 0.27902,0.20448 0.35356,0.35355 0.0639,0.12786 0,1.52186 0,1.76777 0,0.11785 -0.0678,0.44993 0,0.35355 0.24052,-0.34184 0.36375,-0.75268 0.54563,-1.12902"
       id="path3022"
       inkscape:connector-curvature="0" />
    <path
       sodipodi:type="arc"
       style="fill:none;stroke:#000000;stroke-opacity:1"
       id="path3030"
       sodipodi:cx="220"
       sodipodi:cy="404.86218"
       sodipodi:rx="5"
       sodipodi:ry="7.5"
       d="m 225,404.86218 a 5,7.5 0 1 1 -10,0 5,7.5 0 1 1 10,0 z"
       transform="translate(-8.4782609,-1.7391304)" />
    <path
       style="fill:none;stroke:#000000;stroke-width:1px;stroke-linecap:butt;stroke-linejoin:miter;stroke-opacity:1"
       d="m 206.52174,403.01435 c 10,0 10,0 10,0"
       id="path3800"
       inkscape:connector-curvature="0" />
    <path
       style="fill:none;stroke:#ff0000;stroke-width:1px;stroke-linecap:butt;stroke-linejoin:miter;stroke-opacity:1"
       d="m 380,332.36218 c -85,30 -85,30 -85,30 l 0,0"
       id="path3802"
       inkscape:connector-curvature="0" />
    <path
       style="fill:none;stroke:#ff0000;stroke-width:1px;stroke-linecap:butt;stroke-linejoin:miter;stroke-opacity:1"
       d="m 380,332.36218 c -25,-70 -25,-70 -25,-70"
       id="path3804"
       inkscape:connector-curvature="0" />
    <path
       style="fill:none;stroke:#ff0000;stroke-width:1px;stroke-linecap:butt;stroke-linejoin:miter;stroke-opacity:1"
       d="m 354.89362,262.71679 c -1.13475,8.22695 -1.13475,8.22695 -1.13475,8.22695 l 7.37588,-2.69503 z"
       id="path3812"
       inkscape:connector-curvature="0" />
    <path
       style="fill:none;stroke:#ff0000;stroke-width:1px;stroke-linecap:butt;stroke-linejoin:miter;stroke-opacity:1"
       d="m 300.27058,355.08409 c -4.67644,7.44967 -4.67644,7.44967 -4.67644,7.44967 l 7.93906,2.17509 z"
       id="path3816"
       inkscape:connector-curvature="0" />
    <flowRoot
       xml:space="preserve"
       id="flowRoot3818"
       style="font-size:12px;font-style:normal;font-weight:normal;line-height:125%;letter-spacing:0px;word-spacing:0px;fill:#ff0000;fill-opacity:1;stroke:none;font-family:Sans"><flowRegion
         id="flowRegion3820"><rect
           id="rect3822"
           width="35.227272"
           height="14.204545"
           x="312.5"
           y="362.58945"
           style="fill:#ff0000;fill-opacity:1" /></flowRegion><flowPara
         id="flowPara3824">x</flowPara></flowRoot>    <flowRoot
       xml:space="preserve"
       id="flowRoot3826"
       style="font-size:12px;font-style:normal;font-weight:normal;line-height:125%;letter-spacing:0px;word-spacing:0px;fill:#ff0000;fill-opacity:1;stroke:none;font-family:Sans"><flowRegion
         id="flowRegion3828"><rect
           id="rect3830"
           width="25.568182"
           height="17.613636"
           x="369.88635"
           y="259.74854"
           style="fill:#ff0000;fill-opacity:1" /></flowRegion><flowPara
         id="flowPara3832">y</flowPara></flowRoot>  </g>
</svg>
